<?xml version="1.0" encoding="UTF-8"?>
<svg id="_レイヤー_1" data-name="レイヤー 1" xmlns="http://www.w3.org/2000/svg" viewBox="0 0 17 17">
  <defs>
    <style>
      .cls-1 {
        fill: #fff;
        stroke: #000;
        stroke-miterlimit: 10;
      }
    </style>
  </defs>
  <circle class="cls-1" cx="8.5" cy="8.5" r="8"/>
  <path d="m3.72,12.84c-.16-.14-.24-.35-.24-.6V4.19c0-.48.32-.82.79-.82h6.98c.28,0,.52.1.68.25l.67.67c.17.17.28.42.28.71v2.85c0,.32-.1.49-.28.68h-.01s-.26.29-.26.29l.26.26c.24.24.29.47.29.74v2.94c0,.56-.38.95-.96.95h-6.96c-.25,0-.46-.08-.6-.23l-.65-.66Zm7.98-3.69c0-.17-.02-.25-.14-.37l-1.55-.77,1.55-.47c.11-.13.14-.18.14-.35v-2.85c0-.28-.16-.44-.44-.44h-6.98c-.19,0-.29.12-.29.31v8.05c0,.2.1.29.3.29h6.96c.29,0,.46-.14.46-.44v-2.94Zm-2.33-1.94h-3.24v-1.3h3.38v1.12l-.14.18Zm-3.24,3.33v-1.43h3.23l.16.19v1.24h-3.38Z"/>
</svg>